<?xml version="1.0" encoding="utf-8"?>
<!-- Generator: Adobe Illustrator 24.2.1, SVG Export Plug-In . SVG Version: 6.00 Build 0)  -->
<svg version="1.1" id="Layer_1" xmlns="http://www.w3.org/2000/svg" xmlns:xlink="http://www.w3.org/1999/xlink" x="0px" y="0px"
	 viewBox="0 0 157 47" style="enable-background:new 0 0 157 47;" xml:space="preserve">
<style type="text/css">
	.st0{fill:#2FBE6E;}
	.st1{fill:#E8E8E8;}
</style>
<g>
	<g>
		<g>
			<g>
				<path class="st0" d="M83.6,41.9c1.3,0,2,0.6,2,1.9c0,0.6-0.2,1-0.5,1.4c-0.4,0.3-0.9,0.5-1.5,0.5h-2.3v-3.7H83.6z M81.3,37.5h2
					c0.7,0,1.2,0.1,1.5,0.4c0.3,0.3,0.5,0.7,0.5,1.2c0,0.5-0.2,0.9-0.5,1.2c-0.4,0.3-0.8,0.4-1.4,0.4h-2.1L81.3,37.5z M80,46.8h3.6
					c1.1,0,1.9-0.3,2.6-0.8c0.6-0.5,0.9-1.2,0.9-2.2c0-0.6-0.2-1.1-0.5-1.6c-0.3-0.4-0.8-0.8-1.3-0.9c0.5-0.2,0.8-0.5,1.1-0.9
					c0.3-0.4,0.4-0.8,0.4-1.3c0-0.9-0.3-1.6-0.9-2.1c-0.6-0.5-1.4-0.7-2.5-0.7H80L80,46.8z"/>
			</g>
			<g>
				<path class="st0" d="M96.3,36.4v7.1c0,1-0.3,1.8-0.9,2.4c-0.6,0.6-1.4,1-2.5,1.1l-0.4,0c-1.1,0-2-0.3-2.7-0.9
					c-0.7-0.6-1-1.5-1-2.5v-7.1h1.3v7c0,0.7,0.2,1.3,0.6,1.8c0.4,0.4,1,0.6,1.8,0.6s1.4-0.2,1.8-0.6c0.4-0.4,0.6-1,0.6-1.7v-7
					L96.3,36.4L96.3,36.4z"/>
			</g>
			<g>
				<path class="st0" d="M100,46.8h-1.4V36.4h1.4V46.8z"/>
			</g>
			<g>
				<path class="st0" d="M103.9,45.7h4.9v1.1h-6.3V36.4h1.4L103.9,45.7L103.9,45.7z"/>
			</g>
			<g>
				<path class="st0" d="M113.3,37.5c1,0,1.8,0.3,2.4,1c0.6,0.7,0.8,1.6,0.8,2.8v0.6c0,1.2-0.3,2.2-0.9,2.8c-0.6,0.6-1.4,1-2.5,1
					h-1.4v-8.1L113.3,37.5z M113.2,46.8c0.9,0,1.7-0.2,2.4-0.6c0.7-0.4,1.3-1,1.6-1.7c0.4-0.7,0.6-1.6,0.6-2.6v-0.7
					c0-1-0.2-1.8-0.6-2.5c-0.4-0.7-0.9-1.3-1.6-1.7c-0.7-0.4-1.5-0.6-2.4-0.6h-2.9v10.4L113.2,46.8z"/>
			</g>
		</g>
		<g>
			<path class="st1" d="M77,43V42H40.1"/>
		</g>
		<g>
			<path class="st1" d="M120.5,43V42h36.9"/>
		</g>
		<g>
			<g>
				<path d="M47.2,10.7l3.7,0c1.2,0,2.2,0.3,2.8,0.9c0.6,0.6,0.9,1.4,0.9,2.5c0,1-0.3,1.9-1,2.5c-0.6,0.6-1.5,0.9-2.7,0.9l-3.8,0
					L47.2,10.7z M55.2,29.5l5,0v-0.2l-4.9-9.2c1.3-0.6,2.4-1.4,3-2.5c0.7-1,1-2.3,1-3.9c0-2.2-0.7-3.8-2.2-5
					c-1.4-1.2-3.5-1.8-6.2-1.8l-8.4,0l0.1,22.6l4.7,0l0-8.3l3.7,0L55.2,29.5z"/>
			</g>
			<g>
				<path d="M69.8,15.9c1,0,1.7,0.3,2.2,0.8c0.5,0.5,0.8,1.3,0.8,2.3v0.4l-6.2,0c0.2-1.1,0.5-2,1.1-2.6
					C68.2,16.2,68.9,15.9,69.8,15.9z M70.4,29.7c1.4,0,2.7-0.3,3.8-0.8c1.1-0.5,2-1.3,2.7-2.2l-2.2-2.5c-1,1.2-2.3,1.9-4,1.9
					c-1.1,0-2-0.3-2.8-1c-0.7-0.7-1.2-1.5-1.3-2.6l10.7-0.1l0-1.8c0-2.7-0.7-4.7-2-6.1c-1.3-1.4-3.1-2.2-5.4-2.1
					c-1.5,0-2.9,0.4-4.1,1.1c-1.2,0.7-2.1,1.8-2.8,3.1c-0.6,1.3-1,2.8-1,4.5v0.4c0,2.5,0.8,4.5,2.4,6C65.9,29,67.9,29.7,70.4,29.7z"
					/>
			</g>
			<g>
				<path d="M88.9,24.7c0-0.5-0.3-1-0.8-1.3s-1.4-0.6-2.6-0.8c-4-0.8-6-2.5-6-5.1c0-1.5,0.6-2.7,1.8-3.7c1.2-1,2.8-1.5,4.8-1.5
					c2.1,0,3.8,0.5,5.1,1.5c1.3,1,1.9,2.3,1.9,3.9l-4.5,0c0-0.6-0.2-1.2-0.6-1.6c-0.4-0.4-1.1-0.6-1.9-0.6c-0.8,0-1.3,0.2-1.8,0.5
					c-0.4,0.3-0.6,0.8-0.6,1.3c0,0.5,0.2,0.9,0.7,1.2c0.5,0.3,1.3,0.6,2.4,0.8c1.1,0.2,2.1,0.5,2.8,0.7c2.4,0.9,3.6,2.4,3.6,4.5
					c0,1.5-0.6,2.8-1.9,3.7c-1.3,1-3,1.4-5.1,1.4c-1.4,0-2.7-0.2-3.7-0.7c-1.1-0.5-1.9-1.2-2.6-2S79,25,79,24l4.3,0
					c0,0.8,0.4,1.4,0.9,1.8c0.5,0.4,1.3,0.6,2.2,0.6c0.9,0,1.5-0.2,1.9-0.5C88.7,25.6,88.9,25.2,88.9,24.7z"/>
			</g>
			<g>
				<path d="M106.2,27.5c-1.1,1.3-2.6,2-4.6,2c-1.8,0-3.2-0.5-4.1-1.5c-1-1-1.4-2.5-1.5-4.5l-0.1-11l4.5,0l0.1,10.9
					c0,1.8,0.8,2.6,2.4,2.6c1.5,0,2.6-0.5,3.1-1.6l-0.1-11.9l4.5,0l0.1,16.8l-4.2,0L106.2,27.5z"/>
			</g>
			<g>
				<path d="M118.1,12.3l0.2,1.9c1.2-1.5,2.8-2.2,4.8-2.2c2.2,0,3.6,0.8,4.5,2.5c1.2-1.7,2.8-2.6,5-2.6c1.8,0,3.2,0.5,4.1,1.6
					s1.3,2.7,1.4,4.8L138,29l-4.5,0l-0.1-10.7c0-1-0.2-1.6-0.6-2.1c-0.4-0.4-1-0.7-2-0.6c-1.3,0-2.3,0.7-2.8,1.9l0.1,11.5l-4.5,0
					l-0.1-10.7c0-1-0.2-1.7-0.6-2.1c-0.4-0.4-1-0.6-1.9-0.6c-1.3,0-2.2,0.5-2.8,1.6l0.1,11.9l-4.5,0l-0.1-16.8L118.1,12.3z"/>
			</g>
			<g>
				<path d="M150.8,16.3c0.5,0.5,0.8,1.3,0.8,2.3v0.4l-6.2,0c0.2-1.1,0.5-2,1.1-2.6c0.5-0.6,1.3-0.9,2.2-0.9
					C149.5,15.4,150.3,15.7,150.8,16.3L150.8,16.3z M149.2,29.2c1.4,0,2.7-0.3,3.8-0.8c1.1-0.5,2-1.3,2.7-2.2l-2.2-2.5
					c-1,1.2-2.3,1.9-4,1.9c-1.1,0-2-0.3-2.8-1c-0.7-0.7-1.2-1.5-1.3-2.6L156,22l0-1.8c0-2.7-0.7-4.7-2-6.1c-1.3-1.4-3.1-2.2-5.4-2.1
					c-1.5,0-2.9,0.4-4.1,1.1c-1.2,0.7-2.1,1.8-2.8,3.1c-0.6,1.3-1,2.8-1,4.5V21c0,2.5,0.8,4.5,2.4,6
					C144.7,28.5,146.7,29.3,149.2,29.2z"/>
			</g>
		</g>
		<g>
			<g>
				<path class="st1" d="M31.3,3V2.7h-1.8L31.3,3z"/>
			</g>
			<g>
				<path class="st1" d="M7.1,40.7H2.7v-0.6l-2.2-0.3l2.2-16V9.7h1.9l0.6-4.6l3.2-2.4H5.8L0,8.3v35.1h26.7L7.1,40.7z"/>
			</g>
		</g>
		<g>
			<g>
				<g>
					<path class="st0" d="M10.2,28.4c1.9,0.3,14.6,2,16.5,2.3c1.4,0.2,1.7-2,0.3-2.2c-1.9-0.3-14.6-2-16.5-2.3
						C9.1,25.9,8.8,28.2,10.2,28.4L10.2,28.4z"/>
				</g>
				<g>
					<path class="st0" d="M9.4,34.2c1.9,0.3,3.9,0.5,5.8,0.8c1.4,0.2,1.7-2,0.3-2.2c-1.9-0.3-3.9-0.5-5.8-0.8
						C8.3,31.8,8,34,9.4,34.2z"/>
				</g>
				<g>
					<path class="st0" d="M11.5,18.5c-1.4-0.2-1.7,2-0.3,2.2c1.9,0.3,14.6,2,16.5,2.3c1.4,0.2,1.7-2,0.3-2.2
						C26.1,20.5,13.5,18.8,11.5,18.5z"/>
				</g>
				<g>
					<path class="st0" d="M10.7,24.3c1.9,0.3,14.6,2,16.5,2.3c1.4,0.2,1.7-2,0.3-2.2c-1.9-0.3-14.6-2-16.5-2.3
						C9.6,21.9,9.3,24.2,10.7,24.3z"/>
				</g>
				<g>
					<path class="st0" d="M29,11.4c-1.9-0.3-3.9-0.5-5.8-0.8c-1.4-0.2-1.7,2-0.3,2.2c1.9,0.3,3.9,0.5,5.8,0.8
						C30.1,13.8,30.4,11.6,29,11.4z"/>
				</g>
				<g>
					<path class="st0" d="M28.5,15c-1.9-0.3-3.9-0.5-5.8-0.8c-1.4-0.2-1.7,2-0.3,2.2c1.9,0.3,3.9,0.5,5.8,0.8
						C29.6,17.4,29.9,15.2,28.5,15z"/>
				</g>
				<g>
					<path class="st0" d="M7.8,6.8l4.5,0.6l0.6-4.2L34,6.1L29.2,41L3.6,37.5L7.8,6.8z M5.3,5.1L0.5,39.8l31,4.3l5.6-40.3L11.8,0.3
						L5.3,5.1z"/>
				</g>
			</g>
		</g>
	</g>
</g>
</svg>
