<svg width="157" height="47" xmlns="http://www.w3.org/2000/svg" xml:space="preserve" version="1.1">

 <g>
  <title>Layer 1</title>
  <g id="svg_1">
   <g stroke="null" id="svg_2">
    <g stroke="null" id="svg_3">
     <g stroke="null" id="svg_4">
      <path stroke="null" id="svg_5" fill="#2FBE6E" d="m79.31465,39.95605c1.17802,0 1.81234,0.55656 1.81234,1.76245c0,0.55656 -0.18123,0.92761 -0.45309,1.29865c-0.36247,0.27828 -0.81555,0.4638 -1.35926,0.4638l-2.08419,0l0,-3.43215l2.08419,0l0,-0.09276zm-2.08419,-4.08147l1.81234,0c0.63432,0 1.08741,0.09276 1.35926,0.37104c0.27185,0.27828 0.45309,0.64932 0.45309,1.11313c0,0.4638 -0.18123,0.83485 -0.45309,1.11313c-0.36247,0.27828 -0.72494,0.37104 -1.26864,0.37104l-1.90296,0l0,-2.96834zm-1.17802,8.62674l3.26222,0c0.99679,0 1.72173,-0.27828 2.35605,-0.74209c0.5437,-0.4638 0.81555,-1.11313 0.81555,-2.04074c0,-0.55656 -0.18123,-1.02037 -0.45309,-1.48417c-0.27185,-0.37104 -0.72494,-0.74209 -1.17802,-0.83485c0.45309,-0.18552 0.72494,-0.4638 0.99679,-0.83485c0.27185,-0.37104 0.36247,-0.74209 0.36247,-1.20589c0,-0.83485 -0.27185,-1.48417 -0.81555,-1.94797c-0.5437,-0.4638 -1.26864,-0.64932 -2.26543,-0.64932l-3.08098,0l0,9.73987z" class="st0"/>
     </g>
     <g stroke="null" id="svg_6">
      <path stroke="null" id="svg_7" fill="#2FBE6E" d="m90.82303,34.85422l0,6.58601c0,0.92761 -0.27185,1.66969 -0.81555,2.22626c-0.5437,0.55656 -1.26864,0.92761 -2.26543,1.02037l-0.36247,0c-0.99679,0 -1.81234,-0.27828 -2.44666,-0.83485c-0.63432,-0.55656 -0.90617,-1.39141 -0.90617,-2.31902l0,-6.58601l1.17802,0l0,6.49325c0,0.64932 0.18123,1.20589 0.5437,1.66969c0.36247,0.37104 0.90617,0.55656 1.63111,0.55656s1.26864,-0.18552 1.63111,-0.55656c0.36247,-0.37104 0.5437,-0.92761 0.5437,-1.57693l0,-6.49325l1.26864,-0.18552l0,0z" class="st0"/>
     </g>
     <g stroke="null" id="svg_8">
      <path stroke="null" id="svg_9" fill="#2FBE6E" d="m94.17586,44.50133l-1.26864,0l0,-9.64711l1.26864,0l0,9.64711z" class="st0"/>
     </g>
     <g stroke="null" id="svg_10">
      <path stroke="null" id="svg_11" fill="#2FBE6E" d="m97.70993,43.48096l4.44024,0l0,1.02037l-5.70888,0l0,-9.64711l1.26864,0l0,8.62674l0,0z" class="st0"/>
     </g>
     <g stroke="null" id="svg_12">
      <path stroke="null" id="svg_13" fill="#2FBE6E" d="m106.22794,35.87458c0.90617,0 1.63111,0.27828 2.17481,0.92761c0.5437,0.64932 0.72494,1.48417 0.72494,2.5973l0,0.55656c0,1.11313 -0.27185,2.04074 -0.81555,2.5973c-0.5437,0.55656 -1.26864,0.92761 -2.26543,0.92761l-1.26864,0l0,-7.51362l1.44987,-0.09276zm-0.09062,8.62674c0.81555,0 1.54049,-0.18552 2.17481,-0.55656c0.63432,-0.37104 1.17802,-0.92761 1.44987,-1.57693c0.36247,-0.64932 0.5437,-1.48417 0.5437,-2.41178l0,-0.64932c0,-0.92761 -0.18123,-1.66969 -0.5437,-2.31902c-0.36247,-0.64932 -0.81555,-1.20589 -1.44987,-1.57693c-0.63432,-0.37104 -1.35926,-0.55656 -2.17481,-0.55656l-2.6279,0l0,9.64711l2.6279,0z" class="st0"/>
     </g>
    </g>
    <g stroke="null" id="svg_14">
     <path stroke="null" id="svg_15" fill="#E8E8E8" d="m73.33391,40.97642l0,-0.92761l-33.43773,0" class="st1"/>
    </g>
    <g stroke="null" id="svg_16">
     <path stroke="null" id="svg_17" fill="#E8E8E8" d="m112.75238,40.97642l0,-0.92761l33.43773,0" class="st1"/>
    </g>
    <g stroke="null" id="svg_18">
     <g stroke="null" id="svg_19">
      <path stroke="null" id="svg_20" d="m46.33,11.01472l3.35284,0c1.08741,0 1.99358,0.27828 2.53728,0.83485c0.5437,0.55656 0.81555,1.29865 0.81555,2.31902c0,0.92761 -0.27185,1.76245 -0.90617,2.31902c-0.5437,0.55656 -1.35926,0.83485 -2.44666,0.83485l-3.44345,0l0.09062,-6.30773zm7.24937,17.43901l4.53086,0l0,-0.18552l-4.44024,-8.53398c1.17802,-0.55656 2.17481,-1.29865 2.71852,-2.31902c0.63432,-0.92761 0.90617,-2.1335 0.90617,-3.61767c0,-2.04074 -0.63432,-3.52491 -1.99358,-4.63803c-1.26864,-1.11313 -3.1716,-1.66969 -5.61826,-1.66969l-7.61184,0l0.09062,20.96392l4.25901,0l0,-7.69914l3.35284,0l3.80592,7.69914z"/>
     </g>
     <g stroke="null" id="svg_21">
      <path stroke="null" id="svg_22" d="m66.80948,15.83828c0.90617,0 1.54049,0.27828 1.99358,0.74209c0.45309,0.4638 0.72494,1.20589 0.72494,2.1335l0,0.37104l-5.61826,0c0.18123,-1.02037 0.45309,-1.85521 0.99679,-2.41178c0.45309,-0.55656 1.08741,-0.83485 1.90296,-0.83485zm0.5437,12.80097c1.26864,0 2.44666,-0.27828 3.44345,-0.74209c0.99679,-0.4638 1.81234,-1.20589 2.44666,-2.04074l-1.99358,-2.31902c-0.90617,1.11313 -2.08419,1.76245 -3.62469,1.76245c-0.99679,0 -1.81234,-0.27828 -2.53728,-0.92761c-0.63432,-0.64932 -1.08741,-1.39141 -1.17802,-2.41178l9.69604,-0.09276l0,-1.66969c0,-2.50454 -0.63432,-4.35975 -1.81234,-5.6584c-1.17802,-1.29865 -2.80913,-2.04074 -4.89333,-1.94797c-1.35926,0 -2.6279,0.37104 -3.7153,1.02037c-1.08741,0.64932 -1.90296,1.66969 -2.53728,2.87558c-0.5437,1.20589 -0.90617,2.5973 -0.90617,4.17423l0,0.37104c0,2.31902 0.72494,4.17423 2.17481,5.56564c1.35926,1.39141 3.1716,2.04074 5.43703,2.04074z"/>
     </g>
     <g stroke="null" id="svg_23">
      <path stroke="null" id="svg_24" d="m84.11736,24.00122c0,-0.4638 -0.27185,-0.92761 -0.72494,-1.20589s-1.26864,-0.55656 -2.35605,-0.74209c-3.62469,-0.74209 -5.43703,-2.31902 -5.43703,-4.7308c0,-1.39141 0.5437,-2.50454 1.63111,-3.43215c1.08741,-0.92761 2.53728,-1.39141 4.34962,-1.39141c1.90296,0 3.44345,0.4638 4.62148,1.39141c1.17802,0.92761 1.72173,2.1335 1.72173,3.61767l-4.07777,0c0,-0.55656 -0.18123,-1.11313 -0.5437,-1.48417c-0.36247,-0.37104 -0.99679,-0.55656 -1.72173,-0.55656c-0.72494,0 -1.17802,0.18552 -1.63111,0.4638c-0.36247,0.27828 -0.5437,0.74209 -0.5437,1.20589c0,0.4638 0.18123,0.83485 0.63432,1.11313c0.45309,0.27828 1.17802,0.55656 2.17481,0.74209c0.99679,0.18552 1.90296,0.4638 2.53728,0.64932c2.17481,0.83485 3.26222,2.22626 3.26222,4.17423c0,1.39141 -0.5437,2.5973 -1.72173,3.43215c-1.17802,0.92761 -2.71852,1.29865 -4.62148,1.29865c-1.26864,0 -2.44666,-0.18552 -3.35284,-0.64932c-0.99679,-0.4638 -1.72173,-1.11313 -2.35605,-1.85521s-0.81555,-1.76245 -0.81555,-2.69006l3.89654,0c0,0.74209 0.36247,1.29865 0.81555,1.66969c0.45309,0.37104 1.17802,0.55656 1.99358,0.55656c0.81555,0 1.35926,-0.18552 1.72173,-0.4638c0.36247,-0.27828 0.5437,-0.64932 0.5437,-1.11313z"/>
     </g>
     <g stroke="null" id="svg_25">
      <path stroke="null" id="svg_26" d="m99.79413,26.59852c-0.99679,1.20589 -2.35605,1.85521 -4.16839,1.85521c-1.63111,0 -2.89975,-0.4638 -3.7153,-1.39141c-0.90617,-0.92761 -1.26864,-2.31902 -1.35926,-4.17423l-0.09062,-10.20368l4.07777,0l0.09062,10.11091c0,1.66969 0.72494,2.41178 2.17481,2.41178c1.35926,0 2.35605,-0.4638 2.80913,-1.48417l-0.09062,-11.03852l4.07777,0l0.09062,15.5838l-3.80592,0l-0.09062,-1.66969z"/>
     </g>
     <g stroke="null" id="svg_27">
      <path stroke="null" id="svg_28" d="m110.57757,12.49889l0.18123,1.76245c1.08741,-1.39141 2.53728,-2.04074 4.34962,-2.04074c1.99358,0 3.26222,0.74209 4.07777,2.31902c1.08741,-1.57693 2.53728,-2.41178 4.53086,-2.41178c1.63111,0 2.89975,0.4638 3.7153,1.48417s1.17802,2.50454 1.26864,4.45251l-0.09062,9.92539l-4.07777,0l-0.09062,-9.92539c0,-0.92761 -0.18123,-1.48417 -0.5437,-1.94797c-0.36247,-0.37104 -0.90617,-0.64932 -1.81234,-0.55656c-1.17802,0 -2.08419,0.64932 -2.53728,1.76245l0.09062,10.66748l-4.07777,0l-0.09062,-9.92539c0,-0.92761 -0.18123,-1.57693 -0.5437,-1.94797c-0.36247,-0.37104 -0.90617,-0.55656 -1.72173,-0.55656c-1.17802,0 -1.99358,0.4638 -2.53728,1.48417l0.09062,11.03852l-4.07777,0l-0.09062,-15.5838l3.98716,0z"/>
     </g>
     <g stroke="null" id="svg_29">
      <path stroke="null" id="svg_30" d="m140.20938,16.20932c0.45309,0.4638 0.72494,1.20589 0.72494,2.1335l0,0.37104l-5.61826,0c0.18123,-1.02037 0.45309,-1.85521 0.99679,-2.41178c0.45309,-0.55656 1.17802,-0.83485 1.99358,-0.83485c0.72494,-0.09276 1.44987,0.18552 1.90296,0.74209l0,0zm-1.44987,11.96613c1.26864,0 2.44666,-0.27828 3.44345,-0.74209c0.99679,-0.4638 1.81234,-1.20589 2.44666,-2.04074l-1.99358,-2.31902c-0.90617,1.11313 -2.08419,1.76245 -3.62469,1.76245c-0.99679,0 -1.81234,-0.27828 -2.53728,-0.92761c-0.63432,-0.64932 -1.08741,-1.39141 -1.17802,-2.41178l9.60542,0l0,-1.66969c0,-2.50454 -0.63432,-4.35975 -1.81234,-5.6584c-1.17802,-1.29865 -2.80913,-2.04074 -4.89333,-1.94797c-1.35926,0 -2.6279,0.37104 -3.7153,1.02037c-1.08741,0.64932 -1.90296,1.66969 -2.53728,2.87558c-0.5437,1.20589 -0.90617,2.5973 -0.90617,4.17423l0,0.27828c0,2.31902 0.72494,4.17423 2.17481,5.56564c1.44987,1.39141 3.26222,2.1335 5.52765,2.04074z"/>
     </g>
    </g>
    <g stroke="null" id="svg_31">
     <g stroke="null" id="svg_32">
      <path stroke="null" id="svg_33" fill="#E8E8E8" d="m31.92187,3.87215l0,-0.27828l-1.63111,0l1.63111,0.27828z" class="st1"/>
     </g>
     <g stroke="null" id="svg_34">
      <path stroke="null" id="svg_35" fill="#E8E8E8" d="m9.99251,38.84293l-3.98716,0l0,-0.55656l-1.99358,-0.27828l1.99358,-14.84171l0,-13.07926l1.72173,0l0.5437,-4.26699l2.89975,-2.22626l-2.35605,0l-5.2558,5.1946l0,32.559l24.19478,0l-17.76096,-2.50454z" class="st1"/>
     </g>
    </g>
    <g stroke="null" id="svg_36">
     <g stroke="null" id="svg_37">
      <g stroke="null" id="svg_38">
       <path stroke="null" id="svg_39" fill="#2FBE6E" d="m12.80164,27.43336c1.72173,0.27828 13.23011,1.85521 14.95183,2.1335c1.26864,0.18552 1.54049,-1.85521 0.27185,-2.04074c-1.72173,-0.27828 -13.23011,-1.85521 -14.95183,-2.1335c-1.26864,-0.27828 -1.54049,1.85521 -0.27185,2.04074l0,0z" class="st0"/>
      </g>
      <g stroke="null" id="svg_40">
       <path stroke="null" id="svg_41" fill="#2FBE6E" d="m12.07671,32.81348c1.72173,0.27828 3.53407,0.4638 5.2558,0.74209c1.26864,0.18552 1.54049,-1.85521 0.27185,-2.04074c-1.72173,-0.27828 -3.53407,-0.4638 -5.2558,-0.74209c-1.26864,-0.18552 -1.54049,1.85521 -0.27185,2.04074z" class="st0"/>
      </g>
      <g stroke="null" id="svg_42">
       <path stroke="null" id="svg_43" fill="#2FBE6E" d="m13.97967,18.25005c-1.26864,-0.18552 -1.54049,1.85521 -0.27185,2.04074c1.72173,0.27828 13.23011,1.85521 14.95183,2.1335c1.26864,0.18552 1.54049,-1.85521 0.27185,-2.04074c-1.72173,-0.27828 -13.13949,-1.85521 -14.95183,-2.1335z" class="st0"/>
      </g>
      <g stroke="null" id="svg_44">
       <path stroke="null" id="svg_45" fill="#2FBE6E" d="m13.25473,23.63017c1.72173,0.27828 13.23011,1.85521 14.95183,2.1335c1.26864,0.18552 1.54049,-1.85521 0.27185,-2.04074c-1.72173,-0.27828 -13.23011,-1.85521 -14.95183,-2.1335c-1.26864,-0.18552 -1.54049,1.94797 -0.27185,2.04074z" class="st0"/>
      </g>
      <g stroke="null" id="svg_46">
       <path stroke="null" id="svg_47" fill="#2FBE6E" d="m29.83767,11.66404c-1.72173,-0.27828 -3.53407,-0.4638 -5.2558,-0.74209c-1.26864,-0.18552 -1.54049,1.85521 -0.27185,2.04074c1.72173,0.27828 3.53407,0.4638 5.2558,0.74209c1.26864,0.18552 1.54049,-1.85521 0.27185,-2.04074z" class="st0"/>
      </g>
      <g stroke="null" id="svg_48">
       <path stroke="null" id="svg_49" fill="#2FBE6E" d="m29.38459,15.00343c-1.72173,-0.27828 -3.53407,-0.4638 -5.2558,-0.74209c-1.26864,-0.18552 -1.54049,1.85521 -0.27185,2.04074c1.72173,0.27828 3.53407,0.4638 5.2558,0.74209c1.26864,0.18552 1.54049,-1.85521 0.27185,-2.04074z" class="st0"/>
      </g>
      <g stroke="null" id="svg_50">
       <path stroke="null" id="svg_51" fill="#2FBE6E" d="m10.62683,7.39705l4.07777,0.55656l0.5437,-3.89595l19.12022,2.69006l-4.34962,32.37348l-23.19799,-3.24662l3.80592,-28.47753zm-2.26543,-1.57693l-4.34962,32.18796l28.09132,3.98871l5.07456,-37.38256l-22.92614,-3.24662l-5.89012,4.45251z" class="st0"/>
      </g>
     </g>
    </g>
   </g>
  </g>
  <text font-style="normal" font-weight="normal" transform="matrix(0.418916 0 0 0.58491 116.808 -16.325)" xml:space="preserve" text-anchor="start" font-family="sans-serif" font-size="24" id="svg_53" y="46.17657" x="119.2515" fill="#2FBE6E">ER</text>
  <rect id="svg_54" height="3.55869" width="43.94986" y="38.51769" x="111.10715" fill="#ffffff"/>
  <text transform="matrix(0.384911 0 0 0.552899 70.3098 15.8903)" stroke="null" xml:space="preserve" text-anchor="start" font-family="sans-serif" font-size="24" id="svg_55" y="51.33887" x="106.04256" fill="#2FBE6E">ER</text>
 </g>
</svg>