<svg id="Component_1_1" data-name="Component 1 – 1" xmlns="http://www.w3.org/2000/svg" width="555" height="426.13" viewBox="0 0 555 426.13">
  <g id="cups" transform="translate(240.326 384.32)">
    <g id="Group_41" data-name="Group 41" transform="translate(0 0)">
      <g id="Group_38" data-name="Group 38">
        <path id="Path_121" data-name="Path 121" d="M2851.252,820.864h-25.024l-6.087-29.532h36.3Q2853.843,806.1,2851.252,820.864Z" transform="translate(-2812.776 -791.332)" fill="#081623"/>
        <g id="Group_37" data-name="Group 37" transform="translate(0 7.551)">
          <path id="Path_122" data-name="Path 122" d="M2819.526,814.81a7.552,7.552,0,1,1,7.552-7.552A7.56,7.56,0,0,1,2819.526,814.81Zm0-13.3a5.749,5.749,0,1,0,5.749,5.749A5.754,5.754,0,0,0,2819.526,801.51Z" transform="translate(-2811.974 -799.706)" fill="#081623"/>
        </g>
      </g>
    </g>
  </g>
  <g id="Group_55" data-name="Group 55" transform="translate(342.899 227.124)">
    <path id="Path_145" data-name="Path 145" d="M2619.065,633.694V830.187a76.039,76.039,0,0,1-36.386-9.558c-16.552-9.461-22.811-22.41-24.7-26.9a26.023,26.023,0,0,0,4.926-6.356,24.1,24.1,0,0,0,2.576-13.967c-1.528-19.722,3.448-25.378-.715-47.022-.392-2.012-.764-3.61-1.224-5.191-1.538-5.289-3.977-10.365-10.588-30.176q-1.4-4.193-2.791-8.378-1.616-4.839-3.232-9.7-2.821-8.434-5.632-16.877a49.886,49.886,0,0,1,5.123-3.937,79.886,79.886,0,0,1,11.283-5.712,77.03,77.03,0,0,1,13.329-4.132c.02,0,.03-.008.049-.008,7.179-1.573,15.25-2.534,27.307-4.555,2.517-.424,4.73-.807,6.708-1.165,6.788-1.231,10.667-2.111,13.644-2.787Z" transform="translate(-2541.298 -633.538)" fill="#fed2b1"/>
    <path id="Path_146" data-name="Path 146" d="M2698.085,656.051q-2.821,8.422-5.632,16.861-1.618,4.839-3.232,9.7c-.922,2.746-1.832,5.5-2.753,8.247-6.679,20.014-9.089,24.986-10.627,30.34-.44,1.524-.8,3.08-1.185,5.028-4.163,21.644.823,27.292-.705,47.021a23.92,23.92,0,0,0,2.576,13.96,25.459,25.459,0,0,0,4.926,6.357c-1.9,4.49-8.158,17.438-24.71,26.9a75.944,75.944,0,0,1-36.052,9.559c-.108.008-.216.008-.324.008V633.535c2.88.652,6.544,1.5,12.969,2.672,2.213.416,4.749.864,7.7,1.354,17.258,2.885,26.356,3.626,36.327,7.048,1.449.5,2.879,1.036,4.358,1.647a79.541,79.541,0,0,1,7.376,3.48A52.814,52.814,0,0,1,2698.085,656.051Z" transform="translate(-2542.925 -633.535)" fill="#fed2b1"/>
  </g>
  <path id="Path_147" data-name="Path 147" d="M2638.43,657.03h-36.572a113.29,113.29,0,0,0,4.485-20.343,109.936,109.936,0,0,0,.863-11.743v-.48c.029-1.382.02-2.724,0-4.045q-.1-4.408-.49-8.374,13.384.088,26.767.167a82.645,82.645,0,0,0-1.019,8.531q-.1,1.6-.146,3.291c-.039,1.556-.039,3.164.02,4.828.088,2.6.3,5.073.617,7.443A81.971,81.971,0,0,0,2638.43,657.03Z" transform="translate(-2199.646 -405.968)" fill="#fed2b1"/>
  <g id="Group_56" data-name="Group 56" transform="translate(431.782 235.706)">
    <path id="Path_148" data-name="Path 148" d="M2712.115,688.69l-22.654,4-27.678,4.887-10.6,1.872c-.391-1.127-.783-2.244-1.175-3.369q-6.728-19.216-13.448-38.433-2.262-6.435-4.515-12.89c.538-.146,1.479-.391,2.771-.676a78.637,78.637,0,0,1,33.75.109,64.985,64.985,0,0,1,9.031,2.83,60.26,60.26,0,0,1,6.082,2.783,56.737,56.737,0,0,1,5.651,3.379,54,54,0,0,1,8.991,7.59A52.049,52.049,0,0,1,2712.115,688.69Z" transform="translate(-2632.048 -642.297)" fill="#fed2b1"/>
    <path id="Path_149" data-name="Path 149" d="M2659.8,703.352q11.209,24.3,22.429,48.609,6.156,13.34,12.312,26.69a41.029,41.029,0,0,0,20.166-1.234,37.491,37.491,0,0,0,19.48-14.251c-2.38-5.093-4.672-10.5-6.786-16.209-2.342-6.327-3.792-11.185-4.653-14.084-.166-.568-.332-1.136-.51-1.714-4.779-16.572-8.374-35.357-9.549-41.655a33.546,33.546,0,0,0-18.6-7.6,33.982,33.982,0,0,0-21.646,5.935,35.4,35.4,0,0,0-12.644,15.514Z" transform="translate(-2632.618 -643.11)" fill="#fed2b1"/>
  </g>
  <g id="Group_57" data-name="Group 57" transform="translate(307.593 235.708)">
    <path id="Path_150" data-name="Path 150" d="M2607.266,644.762q-2.247,6.451-4.515,12.89-6.714,19.217-13.448,38.433c-.392,1.125-.783,2.242-1.175,3.369l-10.6-1.872-27.658-4.887-22.674-4a52.759,52.759,0,0,1,18.933-32.665,57.746,57.746,0,0,1,9.5-6.218,64.257,64.257,0,0,1,15.112-5.612c.019,0,.03-.01.049-.01a78.426,78.426,0,0,1,32.977-.245C2605.434,644.282,2606.629,644.6,2607.266,644.762Z" transform="translate(-2505.701 -642.299)" fill="#fed2b1"/>
    <path id="Path_151" data-name="Path 151" d="M2579.636,703.352q-11.208,24.3-22.428,48.609-6.157,13.34-12.312,26.69a41.029,41.029,0,0,1-20.166-1.234,37.492,37.492,0,0,1-19.48-14.251c2.38-5.093,4.672-10.5,6.787-16.209,2.341-6.327,3.791-11.185,4.653-14.084.166-.568.332-1.136.509-1.714,4.78-16.572,8.375-35.357,9.549-41.655a33.544,33.544,0,0,1,18.6-7.6,33.982,33.982,0,0,1,21.646,5.935,35.413,35.413,0,0,1,12.644,15.514Z" transform="translate(-2505.25 -643.112)" fill="#fed2b1"/>
  </g>
  <path id="Path_154" data-name="Path 154" d="M2682.147,792.745c-2.057,1.148-4.437,2.5-7.061,4.076-4.937,2.936-10.763,6.615-17.1,11.037-22.517,15.7-25.152,22.428-34.281,22.454a16.232,16.232,0,0,1-4.26-.544c-.107-.035-.215-.06-.323-.1-8.795-2.624-13.575-12.919-32.88-22.677a106.681,106.681,0,0,0-23.545-8.541c-1.038-.243-2.017-.458-2.918-.648q.412-29.925.813-59.84.03-2.241.059-4.481.1-7.748.216-15.493.191-14.975.4-29.933c.048-3.281.088-6.562.137-9.844q.206-15.869.431-31.729V646.3c.01-.484.01-.967.02-1.451a1.8,1.8,0,0,1,.411-.112c1.616-.3,3.222-.614,4.839-.915q7.815-1.477,15.642-2.962c.068.087.215.268.44.527.156.181.353.4.588.665a49.209,49.209,0,0,0,19.853,12.92,46.143,46.143,0,0,0,15.494,2.5c.108,0,.216,0,.323-.009.382,0,.764-.009,1.157-.027a46.575,46.575,0,0,0,14.161-2.754,47.778,47.778,0,0,0,18.824-12.678c.294-.336.558-.648.793-.923.578-.682.94-1.166,1.087-1.373q7.038,1.423,14.065,2.85c1.851.37,3.692.742,5.534,1.122.519.191,1.067.39,1.625.605-.019.665-.039,1.338-.058,2-.363,11.4-.617,22.228-.774,32.385q-.088,4.908-.127,9.612c-.147,13.134-.138,24.992-.021,35.3q.031,3.083.079,5.967c.039,2.246.078,4.405.128,6.477.333,15.277.911,25.615,1.489,29.647.862,6.028,1.891,12.013,1.891,12.013C2680.276,783.417,2681.265,788.486,2682.147,792.745Z" transform="translate(-2198.779 -406.538)" fill="#081623"/>
  <path id="Path_160" data-name="Path 160" d="M2727.446,727.2c-2.463,1.186-4.423,2.15-5.6,2.732-16.579,8.186-32.976,17.141-37.188,19.334-.96.5-1.93,1-2.89,1.5-.6.313-1.185.617-1.783.931-.763-.892-1.527-1.783-2.282-2.675-.881-1.029-1.763-2.046-2.634-3.074q-14.309-16.705-28.61-33.428,2.425-6.774,4.849-13.555.852-2.38,1.7-4.76,8.844-24.757,17.708-49.52c.02-.039.03-.078.049-.117.186-.52.363-1.029.548-1.547,1.852.42,3.692.841,5.535,1.272.518.217,1.066.442,1.625.687a86.368,86.368,0,0,1,7.835,3.869c4.437,2.468,12.116,6.748,18.012,13.505a42.19,42.19,0,0,1,4.914,6.7c3.36,5.789,4.524,10.806,5.879,17.755,4.047,20.755,4.165,27.165,9.393,35.984A50.268,50.268,0,0,0,2727.446,727.2Z" transform="translate(-2200.562 -406.605)" fill="#081623"/>
  <path id="Path_161" data-name="Path 161" d="M2591.056,714.4q-13.443,15.72-26.9,31.431c-1.547,1.811-3.085,3.614-4.632,5.415-.667.775-1.333,1.557-2,2.331-.363-.186-.734-.381-1.1-.567-1.195-.617-2.38-1.234-3.575-1.861-4.4-2.308-19.709-13.567-36.18-18.816a74.346,74.346,0,0,0-8.531-2.163c6.844-17.354,11.34-31.467,14.25-41.48,2.715-9.336,4.548-16.64,10.8-24.474a54.887,54.887,0,0,1,17.635-14.4,62.75,62.75,0,0,1,9.96-4.172,3.158,3.158,0,0,1,.412-.127c1.616-.344,3.223-.7,4.838-1.038.1.284.206.568.3.852.009.028.019.049.029.078q9.064,25.341,18.129,50.684.544,1.515,1.087,3.028Q2588.324,706.742,2591.056,714.4Z" transform="translate(-2197.716 -406.636)" fill="#081623"/>
  <path id="Path_162" data-name="Path 162" d="M2609.579,797.077c.426-2.752,2.385-3.709,2.752-6.629a14.628,14.628,0,0,0,0-3.822c-10.018-4.243-20.747-8.417-32.171-12.388-4.546-1.58-9.8-3.334-18.923-6.174-11.718-3.648-27.975-8.516-48.2-13.979a27.727,27.727,0,0,0-8.985,14.329c-3.135,12.774,4.58,22.906,5.631,24.241,14.569,2.622,30.571,4.857,47.852,6.325a517.237,517.237,0,0,0,52.348,1.787A8.288,8.288,0,0,1,2609.579,797.077Z" transform="translate(-2197.617 -408.891)" fill="#fed2b1"/>
  <path id="Path_163" data-name="Path 163" d="M2629.071,797.077c-.425-2.752-2.385-3.709-2.752-6.629a14.7,14.7,0,0,1,0-3.822c10.019-4.243,20.748-8.417,32.171-12.388,4.546-1.58,9.8-3.334,18.923-6.174,11.717-3.648,27.974-8.516,48.2-13.979a27.736,27.736,0,0,1,8.985,14.329c3.135,12.774-4.58,22.906-5.633,24.241-14.568,2.622-30.569,4.857-47.851,6.325a517.258,517.258,0,0,1-52.351,1.787A8.251,8.251,0,0,0,2629.071,797.077Z" transform="translate(-2200.146 -408.891)" fill="#fed2b1"/>
  <path id="Path_164" data-name="Path 164" d="M2628.933,811.44h-39.807V781.421l24.138,3.591Q2621.1,798.226,2628.933,811.44Z" transform="translate(-2199.384 -409.453)" fill="#fb8c6a"/>
  <path id="Path_165" data-name="Path 165" d="M2597.424,811.44h39.809V781.421l-24.141,3.591Z" transform="translate(-2199.554 -409.453)" fill="#fb8c6a"/>
  <path id="Path_166" data-name="Path 166" d="M2635.89,617.067q-.646.806-1.381,1.587c-.382.42-.793.832-1.214,1.234-.274.264-.539.51-.813.754q-.1,1.6-.146,3.291c-3.35,3.9-8.6,7.032-14.094,6.621-4.427-.333-8.267-2.91-11.018-6.19.028-1.382.019-2.724,0-4.045-.157-.137-.3-.284-.461-.431-.422-.4-.833-.814-1.214-1.234a31,31,0,0,1-2.752-3.38,7.308,7.308,0,0,1,.509-4.632c2.213-4.066,10.431-3.576,14.936-3.31,3.008.176,15.779.94,17.542,6.9A6.332,6.332,0,0,1,2635.89,617.067Z" transform="translate(-2199.661 -405.868)" fill="#081623"/>
  <path id="Path_167" data-name="Path 167" d="M2646.852,571.024q-1.057,7.256-2.116,14.514-1.1,7.553-2.193,15.133c-.088.558-.166,1.107-.245,1.665a33.32,33.32,0,0,1-6.611,13.526q-.646.806-1.381,1.587c-.382.42-.793.832-1.215,1.234-.274.264-.539.509-.813.754-.519.47-1.038.911-1.557,1.312a31.153,31.153,0,0,1-6.778,4.083,9.757,9.757,0,0,1-8.237,0,30.908,30.908,0,0,1-6.778-4.083c-.637-.5-1.273-1.038-1.91-1.636-.157-.137-.3-.284-.46-.431-.422-.4-.833-.814-1.214-1.234a31,31,0,0,1-2.753-3.38,33.579,33.579,0,0,1-5.24-11.733c-.068-.48-.137-.95-.206-1.431q-.441-3.026-.882-6.042c-.46-3.173-.911-6.328-1.371-9.481q-1.043-7.184-2.1-14.358c2.733-12.928,12.722-22.125,23.986-22.419,1.018-.019,5.064-.019,6.083,0C2634.129,548.9,2644.119,558.1,2646.852,571.024Z" transform="translate(-2199.458 -404.663)" fill="#fed2b1"/>
  <path id="Path_168" data-name="Path 168" d="M2635.691,595.074c0,1.831-.816,3.315-1.821,3.315s-1.82-1.484-1.82-3.315.814-3.313,1.82-3.313S2635.691,593.245,2635.691,595.074Z" transform="translate(-2200.266 -405.551)" fill="#081623"/>
  <path id="Path_169" data-name="Path 169" d="M2610.82,595.074c0,1.831-.815,3.315-1.821,3.315s-1.82-1.484-1.82-3.315.815-3.313,1.82-3.313S2610.82,593.245,2610.82,595.074Z" transform="translate(-2199.754 -405.551)" fill="#081623"/>
  <g id="Group_60" data-name="Group 60" transform="translate(429.019 178.069)">
    <path id="Path_170" data-name="Path 170" d="M2640.944,587.011a.483.483,0,0,1-.306-.109c-.186-.151-4.592-3.681-8.582-2.048a6.191,6.191,0,0,0-2,1.34.485.485,0,0,1-.683-.69,7.121,7.121,0,0,1,2.316-1.548c4.447-1.813,9.052,1.779,9.562,2.194a.485.485,0,0,1-.306.861Z" transform="translate(-2629.228 -583.448)" fill="#081623"/>
  </g>
  <g id="Group_61" data-name="Group 61" transform="translate(401.02 179.363)">
    <path id="Path_171" data-name="Path 171" d="M2601.126,588.334a.485.485,0,0,1-.307-.862c.51-.415,5.115-4.007,9.561-2.194a7.132,7.132,0,0,1,2.317,1.548.486.486,0,0,1-.683.69,6.164,6.164,0,0,0-2-1.34c-4-1.633-8.4,1.9-8.583,2.048A.476.476,0,0,1,2601.126,588.334Z" transform="translate(-2600.64 -584.771)" fill="#081623"/>
  </g>
  <g id="Group_62" data-name="Group 62" transform="translate(417.022 212.522)">
    <path id="Path_172" data-name="Path 172" d="M2620.983,622.209a4.594,4.594,0,0,1-3.938-2.3.485.485,0,1,1,.841-.486,3.494,3.494,0,0,0,6.351-.483.486.486,0,0,1,.907.347,4.522,4.522,0,0,1-3.528,2.878A4.3,4.3,0,0,1,2620.983,622.209Z" transform="translate(-2616.979 -618.625)" fill="#081623"/>
  </g>
  <g id="Group_63" data-name="Group 63" transform="translate(418.067 193.405)">
    <path id="Path_173" data-name="Path 173" d="M2621.486,613.573a.5.5,0,0,1-.141-.021c-2.052-.616-3.125-1.406-3.282-2.417a2.125,2.125,0,0,1,.808-1.762,6.1,6.1,0,0,0,1.414-2.261,20.181,20.181,0,0,0,.684-3.319q.338-2.014.709-4.278a.486.486,0,0,1,.959.158q-.371,2.263-.711,4.281a21.056,21.056,0,0,1-.723,3.472,7.007,7.007,0,0,1-1.612,2.6c-.445.5-.609.707-.571.964.091.579,1.015,1.16,2.6,1.637a.485.485,0,0,1-.139.95Z" transform="translate(-2618.045 -599.108)" fill="#081623"/>
  </g>
  <path id="Path_174" data-name="Path 174" d="M2642.886,590.473c-2.147-.388.011-23.665-4.407-24.6-1.244-.264-2.465,1.366-5.1.891-1.567-.283-1.644-.95-3.428-1.469-.923-.269-1.676-.315-6,.122a54.668,54.668,0,0,0-5.876.735c-2.931.732-3.225,1.446-5.387,1.959-3.943.933-5.651-.807-7.59-.367-6.923,1.567-5.406,28.311-8.082,28.544-1.537.134-3.492-8.555-4.529-13.118a57.013,57.013,0,0,1-1.672-13.952,62.05,62.05,0,0,1,.693-7.328c.893-6.9,1.38-10.386,3.306-12.02,2.024-1.718,3.39-.665,6.611-3.061,2.045-1.521,2.049-2.358,3.918-3.918a17.578,17.578,0,0,1,7.835-3.428c4.618-.7,5.4,1.571,12.243,2.449,5.718.732,6.214-.716,10.773.245,1.9.4,7.121,1.5,10.529,5.423,3.715,4.278,3.212,9.708,2.693,20.2a54.742,54.742,0,0,1-2.938,15.018C2645.889,584.639,2643.957,590.666,2642.886,590.473Z" transform="translate(-2199.418 -404.472)" fill="#081623"/>
  <g id="Group_66" data-name="Group 66" transform="translate(391.116 180.672)">
    <path id="Path_175" data-name="Path 175" d="M2591.085,596.144c1.241,4.16,4.153,6.552,6.507,5.341s3.256-5.563,2.015-9.723-4.154-6.551-6.507-5.342S2589.845,591.984,2591.085,596.144Z" transform="translate(-2590.528 -586.106)" fill="#fed2b1"/>
    <g id="Group_64" data-name="Group 64" transform="translate(2.439 3.316)">
      <path id="Path_176" data-name="Path 176" d="M2597.062,597.744a.422.422,0,0,1-.381-.238l-3.619-7.4a.424.424,0,0,1,.762-.372l3.619,7.4a.423.423,0,0,1-.2.567A.412.412,0,0,1,2597.062,597.744Z" transform="translate(-2593.019 -589.492)" fill="#081623"/>
    </g>
    <g id="Group_65" data-name="Group 65" transform="translate(1.649 6.733)">
      <path id="Path_177" data-name="Path 177" d="M2595.237,594.113c-.048,0-2.646-.288-2.646-.288a.423.423,0,0,1-.375-.467.438.438,0,0,1,.467-.375l2.6.285a.424.424,0,0,1-.044.845Z" transform="translate(-2592.212 -592.98)" fill="#081623"/>
    </g>
  </g>
  <g id="Group_69" data-name="Group 69" transform="translate(440.572 180.672)">
    <path id="Path_178" data-name="Path 178" d="M2650.1,596.144c-1.24,4.16-4.154,6.552-6.507,5.341s-3.255-5.563-2.015-9.723,4.153-6.551,6.507-5.342S2651.343,591.984,2650.1,596.144Z" transform="translate(-2641.023 -586.106)" fill="#fed2b1"/>
    <g id="Group_67" data-name="Group 67" transform="translate(2.731 3.315)">
      <path id="Path_179" data-name="Path 179" d="M2644.233,597.744a.41.41,0,0,1-.185-.043.424.424,0,0,1-.2-.567l3.62-7.4a.424.424,0,1,1,.761.372l-3.62,7.4A.423.423,0,0,1,2644.233,597.744Z" transform="translate(-2643.811 -589.491)" fill="#081623"/>
    </g>
    <g id="Group_68" data-name="Group 68" transform="translate(4.541 6.732)">
      <path id="Path_180" data-name="Path 180" d="M2646.082,594.113a.424.424,0,0,1-.045-.845l2.6-.285a.434.434,0,0,1,.467.375.423.423,0,0,1-.375.467l-2.6.285A.371.371,0,0,1,2646.082,594.113Z" transform="translate(-2645.659 -592.979)" fill="#081623"/>
    </g>
  </g>
  <g id="Group_70" data-name="Group 70" transform="translate(389.514 131.889)">
    <path id="Path_181" data-name="Path 181" d="M2594.652,580.041a.481.481,0,0,1-.378-.181,24.531,24.531,0,0,1-4.872-10.243,25.5,25.5,0,0,1,.245-11.094c1.005-4.921,2.045-10.006,5.933-11.5a4.486,4.486,0,0,1,3.791.361,6.244,6.244,0,0,0,3.321.71c3.145-.267,4.933-2.846,6.823-5.577s3.843-5.547,7.3-6.13a5.988,5.988,0,0,1,4.528,1.114,16.136,16.136,0,0,0,6.875,2.311,19.727,19.727,0,0,0,5.553-.081,11.8,11.8,0,0,1,5.455.258,15.952,15.952,0,0,1,9.263,6.747c2.864,4.788,2.552,11.234-.816,16.824a.485.485,0,0,1-.831-.5c3.182-5.282,3.494-11.346.814-15.824a14.975,14.975,0,0,0-8.692-6.311,10.87,10.87,0,0,0-5.068-.229,20.571,20.571,0,0,1-5.8.08,17.157,17.157,0,0,1-7.239-2.433c-1.342-.77-2.23-1.279-3.884-1-3.053.516-4.807,3.047-6.663,5.727-1.937,2.794-3.938,5.686-7.539,5.99a7.153,7.153,0,0,1-3.792-.788,3.558,3.558,0,0,0-3.054-.345c-3.392,1.3-4.376,6.119-5.329,10.78a24.655,24.655,0,0,0-.247,10.7,23.583,23.583,0,0,0,4.678,9.835.485.485,0,0,1-.378.789Z" transform="translate(-2588.893 -536.298)" fill="#081623"/>
  </g>
  <g id="Group_71" data-name="Group 71" transform="translate(325.612 354.699)">
    <path id="Path_182" data-name="Path 182" d="M2524.138,766.41a.49.49,0,0,1-.115-.966,59.564,59.564,0,0,1,27.9,0,.49.49,0,1,1-.23.952,58.6,58.6,0,0,0-27.439,0A.451.451,0,0,1,2524.138,766.41Z" transform="translate(-2523.647 -763.79)" fill="#081623"/>
  </g>
  <g id="Group_72" data-name="Group 72" transform="translate(486.89 348.782)">
    <path id="Path_183" data-name="Path 183" d="M2688.8,766.53a.49.49,0,0,1-.311-.869,34.826,34.826,0,0,1,8.443-5.132,36.69,36.69,0,0,1,21.674-1.988.49.49,0,1,1-.195.96,35.686,35.686,0,0,0-21.094,1.929,33.763,33.763,0,0,0-8.206,4.989A.488.488,0,0,1,2688.8,766.53Z" transform="translate(-2688.315 -757.748)" fill="#081623"/>
  </g>
  <g id="Group_73" data-name="Group 73" transform="translate(359.771 295.207)">
    <path id="Path_184" data-name="Path 184" d="M2559.015,751.346a.48.48,0,0,1-.142-.02.489.489,0,0,1-.327-.61l14.321-47.32a.49.49,0,1,1,.937.284L2559.483,751A.488.488,0,0,1,2559.015,751.346Z" transform="translate(-2558.525 -703.048)" fill="#fff"/>
  </g>
  <g id="Group_74" data-name="Group 74" transform="translate(463.873 292.372)">
    <path id="Path_185" data-name="Path 185" d="M2678.363,747.389a.492.492,0,0,1-.472-.357l-13.059-46.255a.49.49,0,0,1,.944-.265l13.059,46.254a.491.491,0,0,1-.339.6A.485.485,0,0,1,2678.363,747.389Z" transform="translate(-2664.813 -700.153)" fill="#fff"/>
  </g>
  <g id="laptope" transform="translate(334.905 308.626)">
    <g id="Group_75" data-name="Group 75" transform="translate(0.49 0)">
      <rect id="Rectangle_52" data-name="Rectangle 52" width="173.623" height="97.759" fill="#f2f2f2"/>
      <rect id="Rectangle_53" data-name="Rectangle 53" width="173.623" height="7.364" transform="translate(0 97.759)" fill="#f2f2f2"/>
    </g>
    <g id="Group_78" data-name="Group 78" transform="translate(0 97.27)">
      <g id="Group_76" data-name="Group 76" transform="translate(4.189)">
        <path id="Path_186" data-name="Path 186" d="M2702.772,817.042H2537.9a.49.49,0,1,1,0-.979h164.869a.49.49,0,1,1,0,.979Z" transform="translate(-2537.413 -816.063)" fill="#081623"/>
      </g>
      <g id="Group_77" data-name="Group 77" transform="translate(0 7.363)">
        <path id="Path_187" data-name="Path 187" d="M2707.248,824.56H2533.625a.49.49,0,0,1,0-.979h173.622a.49.49,0,1,1,0,.979Z" transform="translate(-2533.136 -823.581)" fill="#081623"/>
      </g>
    </g>
    <g id="Group_79" data-name="Group 79" transform="translate(81.213 36.148)">
      <path id="Path_188" data-name="Path 188" d="M2624.454,770.455a8.4,8.4,0,1,1,8.4-8.4A8.408,8.408,0,0,1,2624.454,770.455Zm0-15.819a7.42,7.42,0,1,0,7.419,7.42A7.428,7.428,0,0,0,2624.454,754.636Z" transform="translate(-2616.055 -753.657)" fill="#081623"/>
    </g>
  </g>
  <g id="table" transform="translate(172.227 414.102)">
    <g id="Group_95" data-name="Group 95" transform="translate(-172.227 0)">
      <g id="Group_93" data-name="Group 93">
        <rect id="Rectangle_55" data-name="Rectangle 55" width="550" height="12.029" rx="6.014" fill="#f2f2f2"/>
      </g>
      <g id="Group_94" data-name="Group 94" transform="translate(72.922 7.806)">
        <path id="Path_201" data-name="Path 201" d="M3030.484,840.289H2287.806a1,1,0,1,1,0-1.995h742.678a1,1,0,1,1,0,1.995Z" transform="translate(-2286.733 -838.295)" fill="#f2f2f2"/>
      </g>
    </g>
  </g>
  <g id="Group_440" data-name="Group 440" transform="translate(198.787 83.491)">
    <g id="Rectangle_29" data-name="Rectangle 29" transform="translate(0.162 -0.491)" fill="#fff" stroke="#f2f2f2" stroke-width="3">
      <rect width="92" height="116" rx="13" stroke="none"/>
      <rect x="1.5" y="1.5" width="89" height="113" rx="11.5" fill="none"/>
    </g>
    <ellipse id="Ellipse_1" data-name="Ellipse 1" cx="9.5" cy="9" rx="9.5" ry="9" transform="translate(14.162 14.509)" fill="#f2f2f2"/>
    <rect id="Rectangle_30" data-name="Rectangle 30" width="19" height="6" rx="3" transform="translate(43.162 17.509)" fill="#f2f2f2"/>
    <rect id="Rectangle_31" data-name="Rectangle 31" width="35" height="8" rx="4" transform="translate(43.162 29.509)" fill="#f2f2f2"/>
    <rect id="Rectangle_32" data-name="Rectangle 32" width="64" height="6" rx="3" transform="translate(14.162 47.509)" fill="#f2f2f2"/>
    <rect id="Rectangle_33" data-name="Rectangle 33" width="64" height="6" rx="3" transform="translate(14.162 59.509)" fill="#f2f2f2"/>
    <rect id="Rectangle_34" data-name="Rectangle 34" width="64" height="6" rx="3" transform="translate(14.162 73.509)" fill="#f2f2f2"/>
    <rect id="Rectangle_35" data-name="Rectangle 35" width="64" height="8" rx="4" transform="translate(14.162 84.509)" fill="#f2f2f2"/>
  </g>
  <g id="Group_441" data-name="Group 441" transform="translate(68.066 0.005)">
    <g id="Rectangle_29-2" data-name="Rectangle 29" transform="translate(-0.117 -0.005)" fill="#fff" stroke="#f2f2f2" stroke-width="3">
      <rect width="92" height="114" rx="13" stroke="none"/>
      <rect x="1.5" y="1.5" width="89" height="111" rx="11.5" fill="none"/>
    </g>
    <ellipse id="Ellipse_1-2" data-name="Ellipse 1" cx="9.5" cy="10" rx="9.5" ry="10" transform="translate(13.883 12.995)" fill="#f2f2f2"/>
    <rect id="Rectangle_30-2" data-name="Rectangle 30" width="21" height="7" rx="3.5" transform="translate(42.883 15.995)" fill="#f2f2f2"/>
    <rect id="Rectangle_31-2" data-name="Rectangle 31" width="36" height="7" rx="3.5" transform="translate(42.883 28.995)" fill="#f2f2f2"/>
    <rect id="Rectangle_32-2" data-name="Rectangle 32" width="65" height="7" rx="3.5" transform="translate(13.883 45.995)" fill="#f2f2f2"/>
    <rect id="Rectangle_33-2" data-name="Rectangle 33" width="65" height="7" rx="3.5" transform="translate(13.883 58.995)" fill="#f2f2f2"/>
    <rect id="Rectangle_34-2" data-name="Rectangle 34" width="65" height="5" rx="2.5" transform="translate(13.883 72.995)" fill="#f2f2f2"/>
    <rect id="Rectangle_35-2" data-name="Rectangle 35" width="65" height="6" rx="3" transform="translate(13.883 84.995)" fill="#f2f2f2"/>
  </g>
  <g id="Group_19" data-name="Group 19" transform="translate(271.287 177.961)">
    <g id="Ellipse_2" data-name="Ellipse 2" transform="translate(-0.338 0.039)" fill="#2fbe6e" stroke="#fff" stroke-width="6">
      <ellipse cx="17" cy="17.5" rx="17" ry="17.5" stroke="none"/>
      <ellipse cx="17" cy="17.5" rx="14.5" ry="15" fill="none"/>
    </g>
    <g id="Group_18" data-name="Group 18" transform="translate(10.618 13.098)">
      <path id="Path_96" data-name="Path 96" d="M2031.853,424.812h-.035a.947.947,0,0,1-.677-.321l-3.384-3.845a.948.948,0,0,1,1.424-1.253l2.723,3.094,6.514-6.375a.948.948,0,0,1,1.326,1.356l-7.229,7.075A.948.948,0,0,1,2031.853,424.812Z" transform="translate(-2027.521 -415.84)" fill="#fff"/>
    </g>
  </g>
  <g id="flower" transform="translate(50.524 230.652)">
    <g id="Group_285" data-name="Group 285">
      <g id="Group_281" data-name="Group 281" transform="translate(44.813)">
        <g id="Group_279" data-name="Group 279">
          <path id="Path_476" data-name="Path 476" d="M2837.617,223.633c-1.628,0-3.483-1.184-5.374-3.436-7.992-9.513-16.081-36.229-10.483-61.651,6.235-28.3,29.152-51.432,43.3-57.248,3.384-1.391,5.987-1.6,7.531-.6,2.916,1.885,1.358,6.811-3.8,23.131-3.329,10.533-7.891,24.957-13.656,46.02-3.5,12.8-5.959,22.594-7.931,30.463-4.46,17.794-5.806,23.164-9.437,23.322C2837.713,223.633,2837.664,223.633,2837.617,223.633Zm32.529-122.673a13.128,13.128,0,0,0-4.75,1.158c-11.618,4.776-36.09,26.287-42.77,56.619-5.465,24.811,2.618,51.753,10.294,60.89,1.768,2.1,3.459,3.164,4.8,3.119,2.973-.13,4.509-6.263,8.618-22.652,1.973-7.874,4.429-17.674,7.936-30.484,5.77-21.078,10.334-35.512,13.668-46.052,4.74-14.992,6.514-20.6,4.164-22.12A3.594,3.594,0,0,0,2870.146,100.96Z" transform="translate(-2819.901 -100.074)" fill="#2fbe6e"/>
        </g>
        <g id="Group_280" data-name="Group 280" transform="translate(16.629 0.953)">
          <path id="Path_477" data-name="Path 477" d="M2833.868,223.422a.44.44,0,0,1-.441-.416c-2.067-34.1,4.538-67.215,19.1-95.767A175.284,175.284,0,0,1,2869,101a.444.444,0,0,1,.707.536,174.141,174.141,0,0,0-16.392,26.1c-14.491,28.41-21.062,61.368-19.005,95.31a.443.443,0,0,1-.415.469Z" transform="translate(-2833.056 -100.828)" fill="#2fbe6e"/>
        </g>
      </g>
      <g id="Group_284" data-name="Group 284" transform="translate(0 66.641)">
        <g id="Group_282" data-name="Group 282">
          <path id="Path_478" data-name="Path 478" d="M2829.144,210.7c-1.758,0-3.843-2.787-9.394-10.2-2.748-3.671-6.168-8.241-10.794-14.151-7.6-9.718-13.134-16.239-17.171-21-6.254-7.379-8.143-9.6-7.035-11.226.586-.856,1.987-1.316,4.057-1.33h.107c8.677,0,25.573,7.045,34.966,20.378,8.471,12.027,10.092,27.718,8,34.423-.509,1.635-1.244,2.67-2.127,2.995A1.747,1.747,0,0,1,2829.144,210.7Zm-40.245-57.41h-.088c-1.871.013-3.165.407-3.648,1.111-.891,1.306,1.258,3.842,7.005,10.62,4.039,4.765,9.571,11.291,17.184,21.016,4.628,5.914,8.051,10.486,10.8,14.16,5.719,7.64,7.853,10.5,9.436,9.917.73-.269,1.361-1.193,1.821-2.674,2.006-6.44.331-22.246-7.937-33.984C2813.406,159.166,2796.052,153.291,2788.9,153.291Z" transform="translate(-2784.452 -152.79)" fill="#2fbe6e"/>
        </g>
        <g id="Group_283" data-name="Group 283" transform="translate(0.093 1.537)">
          <path id="Path_479" data-name="Path 479" d="M2829.861,210.189a.251.251,0,0,1-.237-.168A104.575,104.575,0,0,0,2798.9,164.5a98.472,98.472,0,0,0-14.248-10.025.251.251,0,0,1,.252-.434,98.921,98.921,0,0,1,14.319,10.075,105.09,105.09,0,0,1,30.875,45.742.249.249,0,0,1-.153.319A.269.269,0,0,1,2829.861,210.189Z" transform="translate(-2784.526 -154.006)" fill="#2fbe6e"/>
        </g>
      </g>
      <path id="Path_480" data-name="Path 480" d="M2859.156,257.894h-42.8q-4.1-31.515-8.205-63.032l57.91.244Q2862.61,226.5,2859.156,257.894Z" transform="translate(-2778.192 -75.036)" fill="#2fbe6e"/>
      <path id="Path_481" data-name="Path 481" d="M2859.21,247.153h-42.8l-8.464-11.63h58.427Z" transform="translate(-2778.246 -64.296)" fill="#081623"/>
    </g>
    <g id="Group_286" data-name="Group 286" transform="translate(30.653 127.909)">
      <path id="Path_482" data-name="Path 482" d="M2865.012,202.074h-55.9a.409.409,0,1,1,0-.818h55.9a.409.409,0,1,1,0,.818Z" transform="translate(-2808.7 -201.256)" fill="#081623"/>
    </g>
    <g id="Group_287" data-name="Group 287" transform="translate(31.511 134.481)">
      <path id="Path_483" data-name="Path 483" d="M2864.113,207.274h-54.325a.41.41,0,1,1,0-.819h54.325a.41.41,0,0,1,0,.819Z" transform="translate(-2809.379 -206.455)" fill="#081623"/>
    </g>
    <g id="Group_288" data-name="Group 288" transform="translate(32.281 140.402)">
      <path id="Path_484" data-name="Path 484" d="M2863.3,211.957h-52.9a.409.409,0,1,1,0-.818h52.9a.409.409,0,1,1,0,.818Z" transform="translate(-2809.988 -211.139)" fill="#081623"/>
    </g>
    <g id="Group_289" data-name="Group 289" transform="translate(33.051 146.322)">
      <path id="Path_485" data-name="Path 485" d="M2862.489,216.641h-51.482a.41.41,0,1,1,0-.819h51.482a.41.41,0,1,1,0,.819Z" transform="translate(-2810.597 -215.822)" fill="#081623"/>
    </g>
    <g id="Group_290" data-name="Group 290" transform="translate(34.076 154.217)">
      <path id="Path_486" data-name="Path 486" d="M2861.4,222.885h-49.586a.409.409,0,1,1,0-.818H2861.4a.409.409,0,1,1,0,.818Z" transform="translate(-2811.408 -222.067)" fill="#081623"/>
    </g>
    <g id="Group_291" data-name="Group 291" transform="translate(34.679 158.825)">
      <path id="Path_487" data-name="Path 487" d="M2860.767,226.531h-48.472a.41.41,0,0,1,0-.819h48.472a.41.41,0,1,1,0,.819Z" transform="translate(-2811.885 -225.712)" fill="#081623"/>
    </g>
  </g>
</svg>
